<svg xmlns="http://www.w3.org/2000/svg" viewBox="0 0 1200 675">
  <rect width="1200" height="675" fill="#111111"/>
  <line x1="60" y1="475" x2="1140" y2="475" stroke="rgba(0,198,110,0.20)" stroke-width="1"/>
  <rect x="60"   y="240" width="44" height="235" fill="rgba(0,198,110,0.15)" stroke="rgba(0,198,110,0.40)" stroke-width="1"/>
  <rect x="149"  y="240" width="44" height="235" fill="rgba(0,198,110,0.15)" stroke="rgba(0,198,110,0.40)" stroke-width="1"/>
  <rect x="238"  y="240" width="44" height="235" fill="rgba(0,198,110,0.15)" stroke="rgba(0,198,110,0.40)" stroke-width="1"/>
  <rect x="327"  y="240" width="44" height="235" fill="rgba(0,198,110,0.15)" stroke="rgba(0,198,110,0.40)" stroke-width="1"/>
  <rect x="416"  y="240" width="44" height="235" fill="rgba(0,198,110,0.15)" stroke="rgba(0,198,110,0.40)" stroke-width="1"/>
  <rect x="505"  y="240" width="44" height="235" fill="rgba(0,198,110,0.15)" stroke="rgba(0,198,110,0.40)" stroke-width="1"/>
  <rect x="594"  y="240" width="44" height="235" fill="rgba(0,198,110,0.15)" stroke="rgba(0,198,110,0.40)" stroke-width="1"/>
  <rect x="683"  y="240" width="44" height="235" fill="rgba(0,198,110,0.15)" stroke="rgba(0,198,110,0.40)" stroke-width="1"/>
  <rect x="772"  y="240" width="44" height="235" fill="rgba(0,198,110,0.15)" stroke="rgba(0,198,110,0.40)" stroke-width="1"/>
  <rect x="861"  y="240" width="44" height="235" fill="rgba(0,198,110,0.15)" stroke="rgba(0,198,110,0.40)" stroke-width="1"/>
  <rect x="950"  y="240" width="44" height="235" fill="rgba(0,198,110,0.15)" stroke="rgba(0,198,110,0.40)" stroke-width="1"/>
  <rect x="1039" y="240" width="44" height="235" fill="rgba(0,198,110,0.15)" stroke="rgba(0,198,110,0.40)" stroke-width="1"/>
  <circle cx="82"   cy="240" r="2" fill="#00C66E"/>
  <circle cx="171"  cy="240" r="2" fill="#00C66E"/>
  <circle cx="260"  cy="240" r="2" fill="#00C66E"/>
  <circle cx="349"  cy="240" r="2" fill="#00C66E"/>
  <circle cx="438"  cy="240" r="2" fill="#00C66E"/>
  <circle cx="527"  cy="240" r="2" fill="#00C66E"/>
  <circle cx="616"  cy="240" r="2" fill="#00C66E"/>
  <circle cx="705"  cy="240" r="2" fill="#00C66E"/>
  <circle cx="794"  cy="240" r="2" fill="#00C66E"/>
  <circle cx="883"  cy="240" r="2" fill="#00C66E"/>
  <circle cx="972"  cy="240" r="2" fill="#00C66E"/>
  <circle cx="1061" cy="240" r="2" fill="#00C66E"/>
</svg>
