<svg xmlns="http://www.w3.org/2000/svg" viewBox="0 0 1200 675">
  <rect width="1200" height="675" fill="#111111"/>
  <line x1="40" y1="530" x2="1160" y2="530" stroke="rgba(255,255,255,0.08)" stroke-width="1"/>
  <rect x="60"   y="250" width="32" height="280" fill="rgba(255,255,255,0.05)" stroke="rgba(255,255,255,0.12)" stroke-width="1"/>
  <rect x="108"  y="410" width="32" height="120" fill="rgba(255,255,255,0.05)" stroke="rgba(255,255,255,0.12)" stroke-width="1"/>
  <rect x="156"  y="180" width="32" height="350" fill="rgba(255,255,255,0.05)" stroke="rgba(255,255,255,0.12)" stroke-width="1"/>
  <rect x="204"  y="450" width="32" height="80"  fill="rgba(255,255,255,0.05)" stroke="rgba(255,255,255,0.12)" stroke-width="1"/>
  <rect x="252"  y="310" width="32" height="220" fill="rgba(255,255,255,0.05)" stroke="rgba(255,255,255,0.12)" stroke-width="1"/>
  <rect x="300"  y="220" width="32" height="310" fill="rgba(255,255,255,0.05)" stroke="rgba(255,255,255,0.12)" stroke-width="1"/>
  <rect x="348"  y="380" width="32" height="150" fill="rgba(255,255,255,0.05)" stroke="rgba(255,255,255,0.12)" stroke-width="1"/>
  <rect x="396"  y="470" width="32" height="60"  fill="rgba(255,255,255,0.05)" stroke="rgba(255,255,255,0.12)" stroke-width="1"/>
  <!-- Green bar (height=400, y=130) -->
  <rect x="444"  y="130" width="32" height="400" fill="rgba(0,198,110,0.15)" stroke="rgba(0,198,110,0.40)" stroke-width="1"/>
  <rect x="492"  y="350" width="32" height="180" fill="rgba(255,255,255,0.05)" stroke="rgba(255,255,255,0.12)" stroke-width="1"/>
  <rect x="540"  y="435" width="32" height="95"  fill="rgba(255,255,255,0.05)" stroke="rgba(255,255,255,0.12)" stroke-width="1"/>
  <rect x="588"  y="190" width="32" height="340" fill="rgba(255,255,255,0.05)" stroke="rgba(255,255,255,0.12)" stroke-width="1"/>
  <rect x="636"  y="330" width="32" height="200" fill="rgba(255,255,255,0.05)" stroke="rgba(255,255,255,0.12)" stroke-width="1"/>
  <rect x="684"  y="400" width="32" height="130" fill="rgba(255,255,255,0.05)" stroke="rgba(255,255,255,0.12)" stroke-width="1"/>
  <!-- Second green bar (height=380, y=150) -->
  <rect x="732"  y="150" width="32" height="380" fill="rgba(0,198,110,0.15)" stroke="rgba(0,198,110,0.40)" stroke-width="1"/>
  <rect x="780"  y="445" width="32" height="75"  fill="rgba(255,255,255,0.05)" stroke="rgba(255,255,255,0.12)" stroke-width="1"/>
  <rect x="828"  y="270" width="32" height="260" fill="rgba(255,255,255,0.05)" stroke="rgba(255,255,255,0.12)" stroke-width="1"/>
  <rect x="876"  y="360" width="32" height="170" fill="rgba(255,255,255,0.05)" stroke="rgba(255,255,255,0.12)" stroke-width="1"/>
  <rect x="924"  y="210" width="32" height="320" fill="rgba(255,255,255,0.05)" stroke="rgba(255,255,255,0.12)" stroke-width="1"/>
  <rect x="972"  y="390" width="32" height="140" fill="rgba(255,255,255,0.05)" stroke="rgba(255,255,255,0.12)" stroke-width="1"/>
  <rect x="1020" y="460" width="32" height="90"  fill="rgba(255,255,255,0.05)" stroke="rgba(255,255,255,0.12)" stroke-width="1"/>
  <rect x="1068" y="290" width="32" height="240" fill="rgba(255,255,255,0.05)" stroke="rgba(255,255,255,0.12)" stroke-width="1"/>
  <rect x="1116" y="335" width="32" height="195" fill="rgba(255,255,255,0.05)" stroke="rgba(255,255,255,0.12)" stroke-width="1"/>
</svg>
