<svg xmlns="http://www.w3.org/2000/svg" viewBox="0 0 1200 675">
  <rect width="1200" height="675" fill="#111111"/>
  <line x1="120" y1="560" x2="1000" y2="560" stroke="rgba(255,255,255,0.12)" stroke-width="1"/>
  <rect x="140" y="500" width="48" height="60"  fill="rgba(255,255,255,0.07)" stroke="rgba(255,255,255,0.18)" stroke-width="1"/>
  <rect x="196" y="480" width="48" height="80"  fill="rgba(255,255,255,0.07)" stroke="rgba(255,255,255,0.18)" stroke-width="1"/>
  <rect x="252" y="505" width="48" height="55"  fill="rgba(255,255,255,0.07)" stroke="rgba(255,255,255,0.18)" stroke-width="1"/>
  <rect x="308" y="465" width="48" height="95"  fill="rgba(255,255,255,0.07)" stroke="rgba(255,255,255,0.18)" stroke-width="1"/>
  <rect x="364" y="490" width="48" height="70"  fill="rgba(255,255,255,0.07)" stroke="rgba(255,255,255,0.18)" stroke-width="1"/>
  <rect x="420" y="475" width="48" height="85"  fill="rgba(255,255,255,0.07)" stroke="rgba(255,255,255,0.18)" stroke-width="1"/>
  <rect x="476" y="495" width="48" height="65"  fill="rgba(255,255,255,0.07)" stroke="rgba(255,255,255,0.18)" stroke-width="1"/>
  <rect x="532" y="470" width="48" height="90"  fill="rgba(255,255,255,0.07)" stroke="rgba(255,255,255,0.18)" stroke-width="1"/>
  <rect x="588" y="485" width="48" height="75"  fill="rgba(255,255,255,0.07)" stroke="rgba(255,255,255,0.18)" stroke-width="1"/>
  <!-- Bar 10 (x=644, height=100): green, tallest -->
  <rect x="644" y="460" width="48" height="100" fill="rgba(0,198,110,0.20)" stroke="rgba(0,198,110,0.55)" stroke-width="1"/>
  <rect x="700" y="500" width="48" height="60"  fill="rgba(255,255,255,0.07)" stroke="rgba(255,255,255,0.18)" stroke-width="1"/>
  <rect x="756" y="475" width="48" height="85"  fill="rgba(255,255,255,0.07)" stroke="rgba(255,255,255,0.18)" stroke-width="1"/>
  <rect x="812" y="490" width="48" height="70"  fill="rgba(255,255,255,0.07)" stroke="rgba(255,255,255,0.18)" stroke-width="1"/>
  <rect x="868" y="465" width="48" height="95"  fill="rgba(255,255,255,0.07)" stroke="rgba(255,255,255,0.18)" stroke-width="1"/>
  <rect x="924" y="495" width="48" height="65"  fill="rgba(255,255,255,0.07)" stroke="rgba(255,255,255,0.18)" stroke-width="1"/>
  <circle cx="668" cy="460" r="3" fill="#00C66E"/>
</svg>
