<svg xmlns="http://www.w3.org/2000/svg" viewBox="0 0 1200 675">
  <rect width="1200" height="675" fill="#111111"/>
  <!-- Grid lines -->
  <line x1="100" y1="180" x2="1140" y2="180" stroke="rgba(255,255,255,0.06)" stroke-width="0.5"/>
  <line x1="100" y1="300" x2="1140" y2="300" stroke="rgba(255,255,255,0.06)" stroke-width="0.5"/>
  <line x1="100" y1="420" x2="1140" y2="420" stroke="rgba(255,255,255,0.06)" stroke-width="0.5"/>
  <line x1="100" y1="540" x2="1140" y2="540" stroke="rgba(255,255,255,0.06)" stroke-width="0.5"/>
  <!-- Row 0 (y=180) -->
  <rect x="120" y="180" width="40" height="80" fill="rgba(255,255,255,0.06)" stroke="rgba(255,255,255,0.14)" stroke-width="1"/>
  <rect x="240" y="180" width="40" height="80" fill="rgba(255,255,255,0.06)" stroke="rgba(255,255,255,0.14)" stroke-width="1"/>
  <rect x="360" y="180" width="40" height="80" fill="rgba(255,255,255,0.06)" stroke="rgba(255,255,255,0.14)" stroke-width="1"/>
  <rect x="480" y="180" width="40" height="80" fill="rgba(255,255,255,0.06)" stroke="rgba(255,255,255,0.14)" stroke-width="1"/>
  <!-- Highlighted bar: row 0, col 4 (x=600, y=180) -->
  <rect x="600" y="180" width="40" height="80" fill="rgba(0,198,110,0.20)" stroke="rgba(0,198,110,0.55)" stroke-width="1"/>
  <rect x="720" y="180" width="40" height="80" fill="rgba(255,255,255,0.06)" stroke="rgba(255,255,255,0.14)" stroke-width="1"/>
  <rect x="840" y="180" width="40" height="80" fill="rgba(255,255,255,0.06)" stroke="rgba(255,255,255,0.14)" stroke-width="1"/>
  <rect x="960" y="180" width="40" height="80" fill="rgba(255,255,255,0.06)" stroke="rgba(255,255,255,0.14)" stroke-width="1"/>
  <rect x="1080" y="180" width="40" height="80" fill="rgba(255,255,255,0.06)" stroke="rgba(255,255,255,0.14)" stroke-width="1"/>
  <!-- Row 1 (y=300) -->
  <rect x="120" y="300" width="40" height="80" fill="rgba(255,255,255,0.06)" stroke="rgba(255,255,255,0.14)" stroke-width="1"/>
  <rect x="240" y="300" width="40" height="80" fill="rgba(255,255,255,0.06)" stroke="rgba(255,255,255,0.14)" stroke-width="1"/>
  <rect x="360" y="300" width="40" height="80" fill="rgba(255,255,255,0.06)" stroke="rgba(255,255,255,0.14)" stroke-width="1"/>
  <rect x="480" y="300" width="40" height="80" fill="rgba(255,255,255,0.06)" stroke="rgba(255,255,255,0.14)" stroke-width="1"/>
  <rect x="600" y="300" width="40" height="80" fill="rgba(255,255,255,0.06)" stroke="rgba(255,255,255,0.14)" stroke-width="1"/>
  <rect x="720" y="300" width="40" height="80" fill="rgba(255,255,255,0.06)" stroke="rgba(255,255,255,0.14)" stroke-width="1"/>
  <rect x="840" y="300" width="40" height="80" fill="rgba(255,255,255,0.06)" stroke="rgba(255,255,255,0.14)" stroke-width="1"/>
  <rect x="960" y="300" width="40" height="80" fill="rgba(255,255,255,0.06)" stroke="rgba(255,255,255,0.14)" stroke-width="1"/>
  <rect x="1080" y="300" width="40" height="80" fill="rgba(255,255,255,0.06)" stroke="rgba(255,255,255,0.14)" stroke-width="1"/>
  <!-- Row 2 (y=420) -->
  <rect x="120" y="420" width="40" height="80" fill="rgba(255,255,255,0.06)" stroke="rgba(255,255,255,0.14)" stroke-width="1"/>
  <rect x="240" y="420" width="40" height="80" fill="rgba(255,255,255,0.06)" stroke="rgba(255,255,255,0.14)" stroke-width="1"/>
  <rect x="360" y="420" width="40" height="80" fill="rgba(255,255,255,0.06)" stroke="rgba(255,255,255,0.14)" stroke-width="1"/>
  <rect x="480" y="420" width="40" height="80" fill="rgba(255,255,255,0.06)" stroke="rgba(255,255,255,0.14)" stroke-width="1"/>
  <rect x="600" y="420" width="40" height="80" fill="rgba(255,255,255,0.06)" stroke="rgba(255,255,255,0.14)" stroke-width="1"/>
  <rect x="720" y="420" width="40" height="80" fill="rgba(255,255,255,0.06)" stroke="rgba(255,255,255,0.14)" stroke-width="1"/>
  <rect x="840" y="420" width="40" height="80" fill="rgba(255,255,255,0.06)" stroke="rgba(255,255,255,0.14)" stroke-width="1"/>
  <rect x="960" y="420" width="40" height="80" fill="rgba(255,255,255,0.06)" stroke="rgba(255,255,255,0.14)" stroke-width="1"/>
  <rect x="1080" y="420" width="40" height="80" fill="rgba(255,255,255,0.06)" stroke="rgba(255,255,255,0.14)" stroke-width="1"/>
  <!-- Row 3 (y=540) -->
  <rect x="120" y="540" width="40" height="80" fill="rgba(255,255,255,0.06)" stroke="rgba(255,255,255,0.14)" stroke-width="1"/>
  <rect x="240" y="540" width="40" height="80" fill="rgba(255,255,255,0.06)" stroke="rgba(255,255,255,0.14)" stroke-width="1"/>
  <rect x="360" y="540" width="40" height="80" fill="rgba(255,255,255,0.06)" stroke="rgba(255,255,255,0.14)" stroke-width="1"/>
  <rect x="480" y="540" width="40" height="80" fill="rgba(255,255,255,0.06)" stroke="rgba(255,255,255,0.14)" stroke-width="1"/>
  <rect x="600" y="540" width="40" height="80" fill="rgba(255,255,255,0.06)" stroke="rgba(255,255,255,0.14)" stroke-width="1"/>
  <rect x="720" y="540" width="40" height="80" fill="rgba(255,255,255,0.06)" stroke="rgba(255,255,255,0.14)" stroke-width="1"/>
  <rect x="840" y="540" width="40" height="80" fill="rgba(255,255,255,0.06)" stroke="rgba(255,255,255,0.14)" stroke-width="1"/>
  <rect x="960" y="540" width="40" height="80" fill="rgba(255,255,255,0.06)" stroke="rgba(255,255,255,0.14)" stroke-width="1"/>
  <rect x="1080" y="540" width="40" height="80" fill="rgba(255,255,255,0.06)" stroke="rgba(255,255,255,0.14)" stroke-width="1"/>
  <circle cx="620" cy="180" r="2.5" fill="#00C66E"/>
</svg>
